<?xml version="1.0" encoding="UTF-8"?><svg id="Layer_2" xmlns="http://www.w3.org/2000/svg" viewBox="0 0 707.02 705.07"><defs><style>.cls-1{fill:#00e683;}</style></defs><g id="Layer_1-2"><path class="cls-1" d="M230.8,679.89c8.84-3.83,17.46-7.03,25.59-11.19,28.48-14.58,44.88-37.06,44.81-70.05-.07-32-.01-64-.01-96.21-17.48-11.89-36.47-13.73-55.47-14.77-46.14-2.52-87.61,11.53-126.21,36-17.21,10.9-35.11,20.71-54.81,32.26-6.93-11.35-13.18-21.57-20.88-34.18,33.95-19.8,65.97-38.47,99.37-57.95-10.31-11.72-23.3-12.49-35.44-8.96-21.68,6.31-42.75,14.73-64.01,22.44-4.93,1.79-9.61,4.3-17.3,7.8-4.56-12.78-8.68-24.36-13.09-36.72,30.27-18.53,60.76-30.02,93.57-35.11,35.98-5.57,62.06,13.62,85.27,35.04h80.73c1.05-1.48,2.09-2.96,3.14-4.45-19.91-21.3-39.82-42.6-61.63-65.93-17.69,10.19-33.18,19.1-50.56,29.11-8.38-7.43-17.39-15.41-28.67-25.42,12.93-10.08,23.57-18.37,35.97-28.03-20.25-9.93-40.76-11.95-60.33-3.84-20.79,8.62-39.66,21.77-60.16,31.24-14.1,6.51-29.55,10.12-48.12,16.26-1.16-16.57-2-28.47-2.57-36.64,36.58-18.88,69.85-36.04,104.95-54.16-25.77-31.15-62.52-21.95-97.14-29.2,3.49-13.02,6.67-24.93,9.63-35.95,53.32-4.44,102.9,6.87,127.5,50.14,4.2,7.39,13.72,13.61,22.11,16.48,45.29,15.47,80.31,45.14,112.56,78.84,10.25,10.72,19.48,22.41,31.7,36.57-7.09-39.86-19.45-74.14-49.64-95.46-43.92-31.03-78.01-69.64-105.31-115.18-1.34-2.24-3.35-4.08-5.76-6.97-27.23,4.86-54.98,10.75-81.97-1.88-9.1-4.26-17.94-9.09-29.26-14.86,7.24-12.34,13.32-22.71,20.06-34.2,21.31,9.62,40.44,23.32,66.59,12.87-12.06-17.87-23.3-34.52-35.5-52.59,9.01-9.23,17.39-17.82,28.62-29.32,28.54,41.62,55.28,80.61,84.93,123.86,4.34-14.79,9.01-26.04,10.8-37.72,4.66-30.55-4.66-59-15.54-86.98-5.29-13.61-10.6-27.2-16.96-43.52,11.64-5.45,22.72-10.64,35.46-16.61,31.75,73.69,63.5,143.83,9.25,219.57,5.2,5.63,9.49,11.93,15.26,16.23,33.47,24.95,68.21,48.49,88.62,87.43,1.15-24.74,3.66-50.13-8.95-71.36-11.87-19.99-29.08-36.81-46.39-58.03,2.42-5.55,6.93-15.9,11.9-27.31,25.46,6.78,41.27,24.27,59.88,42.88,1.31-24.19,2.48-45.93,3.73-69.05-62.44-32.98-83.94-87.73-81.13-158.05,12.28-2.24,24.33-4.44,38.66-7.05,3.38,46.93,3.27,92.97,48.99,119.81,15.33-39.78,30.39-78.87,46.05-119.49,15.37,3.29,27.5,5.89,44.45,9.52-59.13,98.66-65.98,203.48-56.94,310.89,25.76-17.04,31.65-30.67,12.01-91.07,10.28-5.74,21.06-11.75,35.25-19.67,6.77,20.05,12.6,37.28,19.94,59.03,7.86-9.71,14.09-17.4,20.82-25.71-54.03-73.87-21.02-144.16,9.56-218.11,12.66,5.5,23.92,10.38,35.71,15.51-18.46,54.87-50.68,105.96-20.67,167.68,28.56-41.57,55.45-80.7,83.87-122.07,11.53,10.88,20.02,18.88,29.46,27.79-12.3,18.47-23.69,35.57-35.78,53.71,25.52,10.11,44.69-2.85,65.85-13.19,6.52,11.1,12.47,21.22,19.12,32.54-33.67,27.79-70.75,27.16-110.36,18.26-9.42,13.65-19.26,26.74-27.83,40.61-17.89,28.95-41.44,52.06-69.63,70.8-32.99,21.93-50.4,54.28-60.28,91.47-.76,2.85-.49,5.98-1.03,13.55,5.26-6.17,7.91-9.15,10.43-12.24,33.86-41.52,72.04-78.49,123.08-97.2,18.75-6.88,30.07-17.38,40.39-32.87,18.23-27.36,47.61-34.17,77.68-38.08,12.64-1.64,25.52-1.45,40.09-2.18,3.61,12.76,6.89,24.35,10.54,37.25-33.63,8.99-71.4-1.87-97.76,29.96,35.55,18.21,68.83,35.27,105.36,53.98-.43,8.01-1.04,19.5-1.84,34.39-12.23-2.44-22.25-2.63-30.58-6.47-19.7-9.1-38.75-19.66-57.78-30.15-25.48-14.05-51.34-18.58-80.83-5,11.78,9.41,22.21,17.74,35.17,28.1-10.66,9.83-19.75,18.21-28.12,25.93-17.19-10.13-32.26-19-50.05-29.48-21.73,23.02-42.08,44.57-62.43,66.12,1.08,1.57,2.17,3.14,3.25,4.71,7.26-.49,14.52-1.38,21.78-1.39,12.9-.02,26-.82,38.64,1.15,13.06,2.04,22.57-.61,32.31-9.94,33.7-32.3,72.96-30.66,113.32-15.56,17.77,6.65,34.88,15.08,54.75,23.78-4.56,13.45-8.5,25.1-12.53,37-40.18-10.48-73.81-43.45-121.39-21.56,35.87,20.75,68.5,39.61,102.98,59.55-7.5,12.14-13.87,22.45-21.11,34.18-22.24-12.94-43.09-24.6-63.48-37.04-36.76-22.43-76.42-34.12-119.46-30.92-17.79,1.32-35.3,6.38-52.42,9.63,0,41.84-2.64,80.21,.83,118.02,2.81,30.74,26.84,47.67,54.41,58.47,3.3,1.29,6.68,2.39,9.97,3.71,1.22,.49,2.3,1.34,3.41,2-31.91,33.71-210.72,33.87-245.03,.19Z"/></g></svg>